<svg xmlns="http://www.w3.org/2000/svg" width="24" height="24" viewBox="0 0 24 24" fill="none">
<path d="M3.86402 16.455C4.41002 18.638 4.68302 19.729 5.49602 20.365C6.31002 21 7.43502 21 9.68502 21H14.315C16.565 21 17.69 21 18.505 20.365C19.318 19.729 19.591 18.638 20.136 16.455C20.994 13.023 21.423 11.308 20.523 10.154C19.622 9 17.853 9 14.316 9H9.68502C6.14702 9 4.37902 9 3.47802 10.154C2.94902 10.831 2.87802 11.702 3.08402 13" stroke="black" stroke-width="1.5" stroke-linecap="round"/>
<path d="M19.5 9.5L18.79 6.895C18.516 5.89 18.379 5.388 18.098 5.009C17.8178 4.63246 17.4373 4.3424 17 4.172C16.56 4 16.04 4 15 4M4.5 9.5L5.21 6.895C5.484 5.89 5.621 5.388 5.902 5.009C6.18218 4.63246 6.56269 4.3424 7 4.172C7.44 4 7.96 4 9 4" stroke="black" stroke-width="1.5"/>
<path d="M9 4C9 3.73478 9.10536 3.48043 9.29289 3.29289C9.48043 3.10536 9.73478 3 10 3H14C14.2652 3 14.5196 3.10536 14.7071 3.29289C14.8946 3.48043 15 3.73478 15 4C15 4.26522 14.8946 4.51957 14.7071 4.70711C14.5196 4.89464 14.2652 5 14 5H10C9.73478 5 9.48043 4.89464 9.29289 4.70711C9.10536 4.51957 9 4.26522 9 4Z" stroke="black" stroke-width="1.5"/>
</svg>