<svg xmlns="http://www.w3.org/2000/svg" width="24" height="24" viewBox="0 0 24 24" fill="none">
<path d="M12 16C14.2091 16 16 14.2091 16 12C16 9.79086 14.2091 8 12 8C9.79086 8 8 9.79086 8 12C8 14.2091 9.79086 16 12 16Z" stroke="black" stroke-width="1.5"/>
<path d="M15 9L19 5M5 19L9 15M9 9L5 5M19 19L15 15" stroke="black" stroke-width="1.5"/>
<path d="M9.41191 2.339C11.1072 1.88323 12.8929 1.88392 14.5879 2.341C19.9229 3.771 23.0879 9.254 21.6589 14.588C20.2289 19.923 14.7469 23.088 9.41191 21.659C4.07691 20.229 0.911911 14.747 2.34091 9.412C2.7924 7.71544 3.68457 6.16847 4.92691 4.928" stroke="black" stroke-width="1.5" stroke-linecap="round"/>
</svg>